<svg viewBox="0 0 478 80" xmlns="http://www.w3.org/2000/svg" fill-rule="evenodd" clip-rule="evenodd" stroke-linejoin="round" stroke-miterlimit="1.414"><path d="M467.32 58.911c.244 0 .459.019.647.057a67.974 67.974 0 0 0 1.292-2.923c.113-.262.244-.562.394-.899.412-.862.768-1.986 1.068-3.372.187-.75.58-1.349 1.18-1.799.674-.487 1.452-.618 2.332-.393.881.225 1.527.731 1.939 1.517l.338.731c.599 1.199.918 2.698.955 4.496.037 1.799-.056 3.447-.281 4.946-.15 1.836-.29 3.344-.422 4.524-.131 1.181-.384 2.567-.758 4.159-.375 1.593-.825 3.026-1.349 4.3-.712 1.611-1.911 2.96-3.597 4.046-1.686 1.087-3.438 1.64-5.255 1.658-1.817.019-3.513-.59-5.086-1.826-1.799-1.611-2.717-3.878-2.754-6.801 0-1.161.59-2.032 1.77-2.613 1.18-.581 2.22-.459 3.119.365.413.412.694 1.246.843 2.501.15 1.255.525 2.052 1.124 2.389.787.449 1.649.402 2.586-.141.936-.543 1.555-1.133 1.854-1.77.113-.262.225-.515.338-.759a4.45 4.45 0 0 0 .281-.843c.075-.318.15-.581.224-.787.075-.206.15-.496.225-.871.075-.375.131-.646.169-.815.037-.168.084-.468.14-.899.057-.431.094-.712.113-.843.019-.131.065-.44.14-.927.075-.488.113-.769.113-.843v-.169a3.906 3.906 0 0 1-.338.14 7.812 7.812 0 0 1-.786.225 4.204 4.204 0 0 1-1.012.141c-.225 0-.543-.019-.955-.056a11.184 11.184 0 0 0-.956-.057 8.12 8.12 0 0 1-1.012-.056c-1.273-.15-2.416-.571-3.428-1.264a5.867 5.867 0 0 1-2.192-2.782 8.112 8.112 0 0 1-.534-2.108 16.764 16.764 0 0 1-.14-1.967c0-.543.019-1.265.056-2.164.037-.899.056-1.574.056-2.023.113-.899.431-1.593.956-2.08a2.688 2.688 0 0 1 1.63-.787h.505c.375.038.712.113 1.012.225.749.338 1.208 1.059 1.377 2.164.169 1.105.187 2.22.056 3.344a6.957 6.957 0 0 0 .422 3.316.492.492 0 0 0 .196.197c.094.056.216.103.366.14.15.038.299.056.449.056h.59zM123.446 0c1.2.133 2.25.616 3.15 1.45.9.833 1.45 1.816 1.65 2.95v2.2c.067 14 .933 28.666 2.6 44 .133 1.4.2 2.866.2 4.4 0 1.533-.033 3.25-.1 5.15-.067 1.9-.1 3.35-.1 4.35V71c0 .933-.2 1.733-.6 2.4-.8 1.4-2.083 2.233-3.85 2.5-1.767.266-3.217-.167-4.35-1.3-.533-.534-.933-1.267-1.2-2.2-.267-.934-.417-1.7-.45-2.3-.033-.6-.017-1.65.05-3.15s.1-2.45.1-2.85c0-.8.017-2 .05-3.6s.05-2.867.05-3.8c0-.934-.017-2.1-.05-3.5a41.122 41.122 0 0 0-.25-3.8c-1.6-14.8-2.4-29.3-2.4-43.5 0-1 .367-2.167 1.1-3.5.733-1.334 1.833-2.134 3.3-2.4h1.1zm67.4 0c1.2.133 2.25.616 3.15 1.45.9.833 1.45 1.816 1.65 2.95v2.2c.067 14 .933 28.666 2.6 44 .133 1.4.2 2.866.2 4.4 0 1.533-.033 3.25-.1 5.15-.067 1.9-.1 3.35-.1 4.35V71c0 .933-.2 1.733-.6 2.4-.8 1.4-2.083 2.233-3.85 2.5-1.767.266-3.217-.167-4.35-1.3-.533-.534-.933-1.267-1.2-2.2-.267-.934-.417-1.7-.45-2.3-.033-.6-.017-1.65.05-3.15s.1-2.45.1-2.85c0-.8.017-2 .05-3.6s.05-2.867.05-3.8c0-.934-.017-2.1-.05-3.5a41.122 41.122 0 0 0-.25-3.8c-1.6-14.8-2.4-29.3-2.4-43.5 0-1 .367-2.167 1.1-3.5.733-1.334 1.833-2.134 3.3-2.4h1.1zm-170.3 69.2c0 .466-.067.866-.2 1.2 0 .133-.067.283-.2.45-.133.166-.367.5-.7 1a5.8 5.8 0 0 1-1.1 1.25c-.4.333-.917.633-1.55.9-.633.266-1.25.366-1.85.3-2.067-.2-3.5-1.234-4.3-3.1-.267-.534-.4-1.167-.4-1.9 0-.734.033-1.367.1-1.9.333-8.334.4-19.5.2-33.5-2.067-.134-3.9-.2-5.5-.2-1.667-.134-2.967-.734-3.9-1.8-1.267-1.4-1.483-3.15-.65-5.25.833-2.1 2.283-3.217 4.35-3.35h.6c1.467.066 3.1.133 4.9.2-.067-5.734-.1-10.3-.1-13.7v-.7c0-.6.1-1.134.3-1.6.267-.934.8-1.717 1.6-2.35.8-.634 1.7-1.017 2.7-1.15h1c1.2.133 2.233.616 3.1 1.45.867.833 1.4 1.85 1.6 3.05v2.6c0 3.533.067 7.966.2 13.3 2.067.133 3.933.2 5.6.2.067.066.183.116.35.15.167.033.467.15.9.35.433.2.817.416 1.15.65.333.233.733.533 1.2.9.467.366.8.766 1 1.2.2.433.383.95.55 1.55.167.6.117 1.2-.15 1.8-.333 1.2-1.033 2.133-2.1 2.8-1.067.666-2.267.966-3.6.9-1.4 0-2.967-.067-4.7-.2.133 6.666.2 12.133.2 16.4 0 4.068-.194 9.881-.581 17.438l-.019.362v.3zM361.07 48.121a6.219 6.219 0 0 1 3.316 1.067c1.011.675 1.817 1.612 2.417 2.811.786 1.686.674 3.091-.338 4.215-.824.899-1.817 1.199-2.978.899-.675-.15-1.237-.525-1.686-1.124-.45-.6-.637-1.255-.563-1.967-.037-.075-.093-.113-.168-.113-.6-.037-1.171.188-1.714.675-.544.487-.853 1.012-.928 1.574-.037.337.085.646.366.927.281.281.843.656 1.686 1.124.843.468 1.358.759 1.545.871 3.035 2.023 4.571 4.328 4.609 6.913 0 1.724-.59 3.269-1.77 4.637-1.181 1.367-2.651 2.163-4.412 2.388-1.424.15-2.839-.075-4.244-.674a8.761 8.761 0 0 1-3.54-2.754c-.956-1.237-1.471-2.623-1.546-4.159-.075-1.124.337-2.061 1.237-2.81.899-.75 1.854-.881 2.866-.394.974.45 1.536 1.405 1.686 2.867.075.824.524 1.461 1.349 1.911.824.449 1.573.449 2.248 0 .262-.15.365-.441.309-.872-.056-.43-.253-.814-.59-1.152-.562-.524-1.443-1.161-2.642-1.911-1.199-.749-2.21-1.508-3.035-2.276a5.865 5.865 0 0 1-1.686-2.782c-.674-2.285-.15-4.496 1.574-6.632 1.724-2.135 3.859-3.222 6.407-3.259h.225zM151.746 60.3c1.4 0 2.6.433 3.6 1.3a5.401 5.401 0 0 1 1.55 2c.367.8.55 1.616.55 2.45a8.72 8.72 0 0 1-.35 2.45c-.233.8-.667 1.5-1.3 2.1-.633.6-1.383 1-2.25 1.2-1.267.266-2.5.066-3.7-.6-1.2-.667-2-1.6-2.4-2.8-1.067-1.467-1.133-3.167-.2-5.1.933-1.934 2.367-2.934 4.3-3h.2zm-52.8-24.5c2.4 0 4.7.483 6.9 1.45 2.2.966 4 2.35 5.4 4.15 2.267 2.733 3.683 5.966 4.25 9.7.567 3.733.1 7.3-1.4 10.7-1.5 3.4-3.95 5.9-7.35 7.5-5.533 2.466-10.3 3.1-14.3 1.9-.867-.267-1.767-.734-2.7-1.4-.733-.6-1.383-1.367-1.95-2.3-.567-.934-.967-1.75-1.2-2.45-.233-.7-.533-1.75-.9-3.15s-.583-2.267-.65-2.6c-.667-2.667-1-5.267-1-7.8 0-2.534.583-5.017 1.75-7.45 1.167-2.434 2.883-4.417 5.15-5.95 2.267-1.6 4.933-2.367 8-2.3zm116.4 0c2.4 0 4.7.483 6.9 1.45 2.2.966 4 2.35 5.4 4.15 2.267 2.733 3.683 5.966 4.25 9.7.567 3.733.1 7.3-1.4 10.7-1.5 3.4-3.95 5.9-7.35 7.5-5.533 2.466-10.3 3.1-14.3 1.9-.867-.267-1.767-.734-2.7-1.4-.733-.6-1.383-1.367-1.95-2.3-.567-.934-.967-1.75-1.2-2.45-.233-.7-.533-1.75-.9-3.15s-.583-2.267-.65-2.6c-.667-2.667-1-5.267-1-7.8 0-2.534.583-5.017 1.75-7.45 1.167-2.434 2.883-4.417 5.15-5.95 2.267-1.6 4.933-2.367 8-2.3zm77.7-28.1c.6.066 1.133.2 1.6.4 2 .866 3.033 3.166 3.1 6.9.067 2.066.2 5.55.4 10.45.2 4.9.317 8.7.35 11.4.033 2.7-.15 6.033-.55 10-.4 3.966-1.133 7.55-2.2 10.75-1.133 3.666-2.933 6.8-5.4 9.4-2.467 2.6-5.333 4.1-8.6 4.5-3.267.466-6.4-.317-9.4-2.35-3-2.034-5.033-4.717-6.1-8.05-1.133-3.467-1.067-7.184.2-11.15 1.267-3.967 3.233-7.384 5.9-10.25a15.819 15.819 0 0 1 4.55-3.5 14.639 14.639 0 0 1 5.45-1.55c1.933-.167 3.833.25 5.7 1.25 0-2.534-.1-6.334-.3-11.4-.2-5.067-.3-8.834-.3-11.3.067-1.734.533-3.067 1.4-4 .933-.867 2-1.367 3.2-1.5h1zm-115.1 28.2c1.8.133 3.2 1.083 4.2 2.85 1 1.766.967 3.483-.1 5.15-.933 1.466-2.3 2.233-4.1 2.3-1.667.133-3.4 1.166-5.2 3.1-3.067 3.2-3.867 5.933-2.4 8.2 1.2 1.933 3.867 2.9 8 2.9.333.066.717.15 1.15.25.433.1 1.083.433 1.95 1 .867.566 1.467 1.25 1.8 2.05.6 1.666.333 3.266-.8 4.8-1.133 1.533-2.633 2.266-4.5 2.2-3.4 0-6.6-.717-9.6-2.15-3-1.434-5.367-3.584-7.1-6.45-1.733-2.867-2.267-6.1-1.6-9.7.867-4.4 3.117-8.234 6.75-11.5 3.633-3.267 7.35-4.934 11.15-5h.4zm-139.2.8a9.805 9.805 0 0 1 1.5.3c.933.333 1.7.916 2.3 1.75.6.833.967 1.716 1.1 2.65v23.7c-.067 1.933-1.067 3.4-3 4.4-1.933 1-3.7.9-5.3-.3-1.333-1-2-2.367-2-4.1V41.8c0-.6.067-1.167.2-1.7.333-.934.933-1.717 1.8-2.35.867-.634 1.8-.984 2.8-1.05h.6zm99.9 0a9.805 9.805 0 0 1 1.5.3c.933.333 1.7.916 2.3 1.75.6.833.967 1.716 1.1 2.65v23.7c-.067 1.933-1.067 3.4-3 4.4-1.933 1-3.7.9-5.3-.3-1.333-1-2-2.367-2-4.1V41.8c0-.6.067-1.167.2-1.7.333-.934.933-1.717 1.8-2.35.867-.634 1.8-.984 2.8-1.05h.6zm119.7-1.7c2.267.2 3.867 1.3 4.8 3.3.333.8.583 1.683.75 2.65.167.966.233 1.8.2 2.5s-.1 1.616-.2 2.75c-.1 1.133-.15 1.933-.15 2.4a34.14 34.14 0 0 1-1.25 7.6c-.7 2.466-1.683 4.733-2.95 6.8-1.267 2.066-2.867 3.75-4.8 5.05-1.933 1.3-4.1 1.983-6.5 2.05-3.6.2-6.633-1.034-9.1-3.7-1.133-1.2-2.083-2.65-2.85-4.35-.767-1.7-1.333-3.217-1.7-4.55-.367-1.334-.65-3.217-.85-5.65-.2-2.434-.3-4.15-.3-5.15v-5.5c.267-2 1-3.434 2.2-4.3 1.467-1.067 3.167-1.15 5.1-.25 1.933.9 2.933 2.316 3 4.25 0 1.4.017 2.883.05 4.45.033 1.566.067 3.05.1 4.45.033 1.4.217 2.866.55 4.4.333 1.533.833 2.9 1.5 4.1.667 1.266 1.7 1.7 3.1 1.3 1.867-.6 3.233-3.434 4.1-8.5.2-1.134.367-3.4.5-6.8-.267-.334-.517-.8-.75-1.4-.233-.6-.35-1.584-.35-2.95 0-1.367.467-2.484 1.4-3.35 1.133-1 2.367-1.534 3.7-1.6h.7zm133.017 14.75c1.349 0 2.641.272 3.878.815 1.236.544 2.248 1.321 3.035 2.333 1.274 1.536 2.07 3.353 2.388 5.451.319 2.099.057 4.103-.786 6.014-.843 1.911-2.22 3.316-4.131 4.215-3.11 1.387-5.789 1.743-8.037 1.068-.487-.15-.993-.412-1.518-.787a5.016 5.016 0 0 1-1.096-1.292c-.318-.525-.543-.984-.674-1.377-.131-.394-.3-.984-.506-1.771a36.864 36.864 0 0 1-.365-1.461 18.028 18.028 0 0 1-.562-4.384c0-1.424.328-2.819.983-4.187a8.324 8.324 0 0 1 2.895-3.344c1.274-.899 2.772-1.33 4.496-1.293zm58.338.338c.562 0 1.087.037 1.574.112 1.423.113 2.622.375 3.597.787.974.412 1.667 1.143 2.079 2.192.375.937.253 1.883-.365 2.838-.618.956-1.433 1.396-2.445 1.321-.899-.075-1.611-.469-2.136-1.18-1.311-.338-2.585-.394-3.821-.169a10.304 10.304 0 0 0-1.012 3.316c-.075.749-.113 1.686-.113 2.81v.45a79.207 79.207 0 0 0-.056 2.248c.113.15.244.318.394.506.15.187.328.552.534 1.095.206.544.234 1.04.084 1.49-.187.787-.674 1.358-1.461 1.714-.787.356-1.64.393-2.558.112-.918-.281-1.601-.871-2.051-1.77-.262-.45-.45-.993-.562-1.63a13.313 13.313 0 0 1-.197-1.489c-.018-.356-.009-.946.028-1.771.038-.824.057-1.33.057-1.517.037-2.286.271-4.271.702-5.957.431-1.687 1.283-3.073 2.557-4.159 1.087-.9 2.811-1.349 5.171-1.349zm-20.795 12.477c.113.187.253.346.422.477.168.131.384.235.646.309.262.075.468.141.618.197.15.056.412.113.787.169.375.056.618.103.731.14 1.948.338 3.409.263 4.383-.225 1.387-.412 2.473-.243 3.26.506.675.6.956 1.405.843 2.417-.112 1.012-.581 1.761-1.405 2.248-.674.375-1.602.675-2.782.899-1.18.225-2.37.263-3.569.113-4.533-.487-7.512-1.911-8.936-4.272-1.124-2.098-1.639-4.318-1.545-6.66.093-2.341.665-4.524 1.714-6.547a10.693 10.693 0 0 1 3.175-3.71c1.33-.974 2.838-1.48 4.524-1.517h.225a6.053 6.053 0 0 1 3.457 1.18 5.59 5.59 0 0 1 2.107 2.979c.787 2.473.319 4.899-1.405 7.278-1.723 2.379-4.009 3.719-6.856 4.019h-.394zm-89.081-28.607c.338.037.637.112.9.224 1.124.488 1.704 1.78 1.742 3.878.037 1.162.112 3.12.225 5.874.112 2.753.178 4.889.196 6.407.019 1.517-.084 3.391-.309 5.62-.224 2.229-.637 4.243-1.236 6.042-.637 2.06-1.649 3.821-3.035 5.283-1.386 1.461-2.998 2.304-4.833 2.529-1.836.262-3.597-.178-5.283-1.321-1.687-1.143-2.829-2.651-3.429-4.524-.637-1.949-.599-4.038.113-6.267.711-2.229 1.817-4.149 3.316-5.761a8.893 8.893 0 0 1 2.557-1.967 8.24 8.24 0 0 1 3.063-.871c1.086-.093 2.154.141 3.203.703 0-1.424-.056-3.56-.168-6.407-.113-2.848-.169-4.965-.169-6.351.038-.974.3-1.724.787-2.248.524-.487 1.124-.768 1.798-.843h.562zM77.146 35.3c1.333.066 2.467.65 3.4 1.75.933 1.1 1.383 2.383 1.35 3.85-.033 1.466-.65 2.666-1.85 3.6-.2.2-.533.6-1 1.2-1.067 1.6-2.933 4.816-5.6 9.65-2.667 4.833-5.033 8.45-7.1 10.85a9.518 9.518 0 0 1-3.05 2.5c-1.167.6-2.433.833-3.8.7-1.367-.134-2.55-.8-3.55-2-1.267-1.6-2.35-3.45-3.25-5.55-.9-2.1-1.733-4.434-2.5-7-.767-2.567-1.317-4.25-1.65-5.05 0-.2-.083-.484-.25-.85a9.517 9.517 0 0 1-.35-.85 19.58 19.58 0 0 1-.9-3.15c-.2-1.034-.267-2.067-.2-3.1.067-1.034.383-1.934.95-2.7.567-.767 1.35-1.317 2.35-1.65 1.533-.534 3.017-.3 4.45.7 1.433 1 2.217 2.3 2.35 3.9 0 .8.383 2.183 1.15 4.15.767 1.966 1.25 3.45 1.45 4.45.4 1.866.933 3.433 1.6 4.7v.1c.467-.734 1.267-2.117 2.4-4.15 1.133-2.034 2-3.567 2.6-4.6.6-1.034 1.4-2.334 2.4-3.9 1-1.567 1.967-2.95 2.9-4.15 1.533-2.067 3.2-3.2 5-3.4h.7zm302.077 14.507c1.012.075 1.799.609 2.361 1.601.562.993.543 1.958-.056 2.895-.525.824-1.293 1.255-2.305 1.293-.936.074-1.911.655-2.922 1.742-1.724 1.798-2.173 3.334-1.349 4.608.674 1.087 2.173 1.63 4.496 1.63.187.038.403.085.646.141.244.056.609.243 1.096.562.487.318.825.702 1.012 1.152.337.937.187 1.836-.45 2.698-.637.861-1.48 1.274-2.529 1.236-1.911 0-3.709-.403-5.395-1.208a9.224 9.224 0 0 1-3.991-3.625c-.974-1.611-1.273-3.429-.899-5.452.487-2.473 1.752-4.627 3.794-6.463 2.042-1.836 4.131-2.773 6.266-2.81h.225zm-32.597.449c.3.038.581.094.843.169.524.187.955.515 1.293.983.337.469.543.965.618 1.49v13.32c-.038 1.086-.6 1.911-1.686 2.473-1.087.562-2.08.506-2.979-.169-.749-.562-1.124-1.33-1.124-2.304V53.123c0-.338.037-.656.112-.956a2.781 2.781 0 0 1 1.012-1.321 2.966 2.966 0 0 1 1.574-.59h.337zm72.108-.787c.749.038 1.386.366 1.91.984.525.618.778 1.34.759 2.164-.019.824-.365 1.499-1.04 2.023a8.728 8.728 0 0 0-.562.675c-.599.899-1.648 2.707-3.147 5.423-1.499 2.717-2.829 4.749-3.99 6.098a5.333 5.333 0 0 1-1.715 1.405 3.77 3.77 0 0 1-2.135.393c-.768-.074-1.433-.449-1.995-1.124-.712-.899-1.321-1.939-1.827-3.119a36.535 36.535 0 0 1-1.405-3.934c-.431-1.442-.74-2.389-.927-2.838 0-.113-.047-.272-.141-.478a5.324 5.324 0 0 1-.197-.478 11.004 11.004 0 0 1-.505-1.77 6.814 6.814 0 0 1-.113-1.742 2.807 2.807 0 0 1 .534-1.518c.319-.431.759-.74 1.321-.927.862-.3 1.695-.169 2.501.393.805.562 1.246 1.293 1.321 2.192 0 .45.215 1.227.646 2.333.431 1.105.702 1.939.815 2.501.225 1.049.524 1.929.899 2.641v.056c.262-.412.712-1.189 1.349-2.332a180.69 180.69 0 0 1 1.461-2.585c.337-.581.787-1.312 1.349-2.192a30.742 30.742 0 0 1 1.63-2.333c.862-1.161 1.798-1.798 2.81-1.911h.394zm-84.697 5.396c-1.05 0-2.024.871-2.923 2.613-.899 1.743-1.199 3.269-.899 4.581.15.487.44.937.871 1.349.431.412.89.637 1.377.674.862.075 1.705-.543 2.529-1.855.787-1.273 1.368-3.334 1.742-6.182-.974-.225-1.742-.562-2.304-1.011-.187-.113-.319-.169-.393-.169zm57.214.674c-.712 0-1.284.338-1.715 1.012a4.387 4.387 0 0 0-.702 2.192 2.73 2.73 0 0 0 0 .787c0 .299.019.618.056.955.038.113.281.974.731 2.585 0 .038.009.066.028.085.019.018.037.028.056.028.019 0 .056.065.112.197.057.131.103.346.141.646.037.037.112.056.225.056 1.573-.15 2.716-.468 3.428-.955.787-.525 1.237-1.34 1.349-2.445a5.703 5.703 0 0 0-.562-3.147c-.487-.993-1.143-1.602-1.967-1.827a4.505 4.505 0 0 0-1.18-.169zM282.746 44.9c-1.867 0-3.6 1.55-5.2 4.65-1.6 3.1-2.133 5.816-1.6 8.15.267.866.783 1.666 1.55 2.4.767.733 1.583 1.133 2.45 1.2 1.533.133 3.033-.967 4.5-3.3 1.4-2.267 2.433-5.934 3.1-11-1.733-.4-3.1-1-4.1-1.8-.333-.2-.567-.3-.7-.3zm-184 1.2c-1.267 0-2.283.6-3.05 1.8a7.82 7.82 0 0 0-1.25 3.9 4.9 4.9 0 0 0 0 1.4c0 .533.033 1.1.1 1.7.067.2.5 1.733 1.3 4.6 0 .066.017.116.05.15.033.033.067.05.1.05s.1.116.2.35c.1.233.183.616.25 1.15.067.066.2.1.4.1 2.8-.267 4.833-.834 6.1-1.7 1.4-.934 2.2-2.384 2.4-4.35.2-1.967-.133-3.834-1-5.6-.867-1.767-2.033-2.85-3.5-3.25-.733-.2-1.433-.3-2.1-.3zm116.4 0c-1.267 0-2.283.6-3.05 1.8a7.82 7.82 0 0 0-1.25 3.9 4.9 4.9 0 0 0 0 1.4c0 .533.033 1.1.1 1.7.067.2.5 1.733 1.3 4.6 0 .066.017.116.05.15.033.033.067.05.1.05s.1.116.2.35c.1.233.183.616.25 1.15.067.066.2.1.4.1 2.8-.267 4.833-.834 6.1-1.7 1.4-.934 2.2-2.384 2.4-4.35.2-1.967-.133-3.834-1-5.6-.867-1.767-2.033-2.85-3.5-3.25-.733-.2-1.433-.3-2.1-.3zM428.57 56.771c1.025-.085 1.914-.496 2.669-1.232.768-.749 1.039-1.573.814-2.473v-.056c0-.075-.074-.112-.224-.112-.75 0-1.415.384-1.996 1.152-.579.767-1.001 1.674-1.263 2.721l-.057.005h.056l.001-.005zm-80.989-17.418c.974.038 1.761.525 2.361 1.461.599.937.656 1.874.168 2.81-.562 1.087-1.508 1.668-2.838 1.743-1.33.075-2.257-.469-2.782-1.63l-.225-1.124c-.037-.862.206-1.593.731-2.192l.422-.281c.168-.113.477-.272.927-.478.449-.206.862-.309 1.236-.309zm108.463-17.741c1.386.038 2.688.553 3.906 1.546s2.126 2.182 2.726 3.569c.524 1.198.833 2.669.927 4.411.094 1.743.084 3.307-.028 4.693 0 1.387-.262 2.829-.787 4.328-.037.787-.225 1.48-.562 2.079l-.562.675a2.45 2.45 0 0 1-.674.562l-.619.225-.786.056-.9-.113-.674-.337a1.552 1.552 0 0 1-.45-.393l-.337-.394c-.225-.337-.375-.777-.449-1.32-.075-.544-.019-1.134.168-1.771.038-.037.131-.3.281-.787.525-1.648.712-4.102.562-7.362-.075-1.349-.337-2.304-.787-2.866a2.22 2.22 0 0 0-.477-.45c-.206-.15-.384-.281-.534-.393l-.225-.113c-1.162.187-2.098.862-2.81 2.023-.712 1.162-1.068 2.492-1.068 3.991 0 .562.019 1.386.056 2.473.038 1.086.056 1.873.056 2.36 0 .899-.299 1.63-.899 2.192-.749.787-1.742.965-2.979.534-1.236-.431-1.873-1.246-1.911-2.445a170.562 170.562 0 0 0-.168-4.524c-.075-1.48.094-3.026.506-4.637.412-1.611 1.096-2.969 2.051-4.074a11.488 11.488 0 0 1 3.344-2.67c1.274-.674 2.585-1.03 3.934-1.068h.169zm-60.474.281c.412 0 .806.047 1.18.141.375.093.778.253 1.209.477.431.225.777.412 1.04.562.262.15.646.394 1.152.731.505.337.833.562.983.674l.787.506c.637-.599 1.48-1.03 2.529-1.292 1.049-.263 2.192-.244 3.428.056 1.349.449 2.548 1.227 3.597 2.332a9.68 9.68 0 0 1 2.249 3.794c.899 2.96.861 6.313-.113 10.06a3.46 3.46 0 0 1-.787 1.518l-.506.449-.73.337a2.67 2.67 0 0 1-.731.113l-.843-.056-.73-.338-.731-.562-.45-.674a2.8 2.8 0 0 1-.281-.843c0-.187.019-.422.056-.703.038-.281.075-.515.113-.702l.056-.281c.637-2.81.656-5.04.056-6.688-.412-1.199-1.142-1.967-2.192-2.305-.374-.112-.824.731-1.348 2.53v4.383c-.038.45-.132.843-.281 1.181-.3.711-.834 1.199-1.602 1.461-.768.262-1.555.234-2.361-.084-.805-.319-1.377-.909-1.714-1.771-.487-1.274-.45-3.166.112-5.676-.187-1.087-.318-1.63-.393-1.63l-.112-.113c-.225-.149-.628-.44-1.209-.871-.58-.431-1.058-.721-1.433-.871-.449.6-.768 1.18-.955 1.742-.937 2.698-.993 4.984-.169 6.857.075.15.131.244.169.281l.168.169c.075.075.15.187.225.337.675 1.012.572 2.098-.309 3.26-.88 1.161-1.939 1.498-3.175 1.011-1.424-.562-2.389-1.845-2.895-3.85a16.155 16.155 0 0 1-.337-6.154c.281-2.098.759-3.859 1.433-5.283a8.142 8.142 0 0 1 2.333-2.978c.992-.787 2.107-1.199 3.344-1.237h.168zm28.72-.674l1.686.168c.749.075 1.292.113 1.63.113 1.236.15 2.098.674 2.585 1.573.974.413 1.611.956 1.911 1.63.037.113.187.581.449 1.405.862 2.698 1.031 5.658.506 8.88.375.937.862 1.405 1.461 1.405 1.312.15 2.192.712 2.642 1.686.412.9.309 1.818-.309 2.754-.618.937-1.452 1.387-2.501 1.349-.188 0-.375-.019-.562-.056-1.649-.15-3.073-.824-4.272-2.023a5.172 5.172 0 0 1-.646.253c-.281.093-.777.215-1.489.365-.712.15-1.33.206-1.855.169-1.611-.038-3.035-.413-4.271-1.125-1.499-.861-2.679-2.135-3.541-3.821a13.552 13.552 0 0 1-1.461-5.452c-.075-2.36.599-4.477 2.023-6.351 1.424-1.873 3.353-2.847 5.789-2.922h.225zm-46.255.73c1.349 0 2.642.272 3.878.815 1.236.544 2.248 1.321 3.035 2.333 1.274 1.536 2.07 3.353 2.389 5.451.318 2.098.056 4.103-.787 6.014-.843 1.911-2.22 3.316-4.131 4.215-3.11 1.386-5.789 1.742-8.037 1.068-.487-.15-.993-.412-1.518-.787a5.004 5.004 0 0 1-1.096-1.293c-.318-.524-.543-.983-.674-1.377-.131-.393-.3-.983-.506-1.77a36.864 36.864 0 0 1-.365-1.461 18.028 18.028 0 0 1-.562-4.384c0-1.424.328-2.819.983-4.187a8.317 8.317 0 0 1 2.895-3.344c1.274-.899 2.772-1.33 4.496-1.293zM366.008 6.156c.337.038.637.113.899.225 1.124.487 1.705 1.78 1.742 3.878.038 1.162.113 3.119.225 5.873s.178 4.89.197 6.407c.018 1.518-.085 3.391-.309 5.621-.225 2.229-.637 4.243-1.237 6.041-.637 2.061-1.648 3.822-3.035 5.283-1.386 1.462-2.997 2.305-4.833 2.53-1.836.262-3.597-.178-5.283-1.321-1.686-1.143-2.829-2.651-3.429-4.524-.636-1.949-.599-4.038.113-6.267s1.817-4.15 3.316-5.761a8.906 8.906 0 0 1 2.557-1.967 8.24 8.24 0 0 1 3.063-.871c1.087-.094 2.154.14 3.204.703 0-1.424-.057-3.56-.169-6.408-.112-2.847-.169-4.964-.169-6.35.038-.975.3-1.724.787-2.249.525-.487 1.124-.768 1.799-.843h.562zm75.479 16.299c.3.038.581.094.844.169a2.67 2.67 0 0 1 1.292.983c.337.469.543.965.618 1.49v13.32c-.037 1.086-.599 1.91-1.686 2.473-1.086.562-2.079.505-2.978-.169-.75-.562-1.124-1.33-1.124-2.304V25.321c0-.337.037-.655.112-.955.187-.525.525-.965 1.012-1.321a2.963 2.963 0 0 1 1.573-.59h.337zm-81.268 4.609c-1.049 0-2.023.871-2.923 2.613-.899 1.742-1.199 3.269-.899 4.581.15.487.44.936.871 1.348.431.413.89.637 1.377.675.862.075 1.705-.543 2.529-1.855.787-1.274 1.368-3.334 1.743-6.182-.975-.225-1.743-.562-2.305-1.012-.187-.112-.318-.168-.393-.168zm17.704.674c-.712 0-1.284.337-1.715 1.012a4.397 4.397 0 0 0-.702 2.192 2.73 2.73 0 0 0 0 .787c0 .299.019.618.056.955.038.112.281.974.731 2.585 0 .038.009.066.028.085.019.018.037.028.056.028.019 0 .056.065.112.196.057.132.103.347.141.647.037.037.112.056.225.056 1.573-.15 2.716-.468 3.428-.956.787-.524 1.237-1.339 1.349-2.444a5.706 5.706 0 0 0-.562-3.148c-.487-.993-1.143-1.601-1.967-1.826a4.464 4.464 0 0 0-1.18-.169zm46.254-.674c-.824 0-1.414.44-1.77 1.32-.356.881-.422 1.893-.197 3.035.225 1.143.675 2.089 1.349 2.839.412.449.965.73 1.658.843.693.112 1.283.037 1.77-.225-.299-1.649-.449-3.166-.449-4.553v-3.034a.62.62 0 0 0-.281-.057 96.467 96.467 0 0 0-2.08-.168zM40.446 17.3c1.733.066 3.133.933 4.2 2.6 1.067 1.666 1.167 3.333.3 5-1 1.933-2.683 2.966-5.05 3.1-2.367.133-4.017-.834-4.95-2.9l-.4-2c-.067-1.534.367-2.834 1.3-3.9l.75-.5c.3-.2.85-.484 1.65-.85.8-.367 1.533-.55 2.2-.55zm99.9 0c1.733.066 3.133.933 4.2 2.6 1.067 1.666 1.167 3.333.3 5-1 1.933-2.683 2.966-5.05 3.1-2.367.133-4.017-.834-4.95-2.9l-.4-2c-.067-1.534.367-2.834 1.3-3.9l.75-.5c.3-.2.85-.484 1.65-.85.8-.367 1.533-.55 2.2-.55zm302.097-5.748c.974.037 1.761.524 2.36 1.461.6.937.656 1.874.169 2.81-.562 1.087-1.508 1.668-2.838 1.743-1.33.074-2.258-.469-2.782-1.63l-.225-1.124c-.037-.862.206-1.593.731-2.192l.421-.281c.169-.113.478-.272.927-.478.45-.206.862-.309 1.237-.309z" fill="#fff" fill-rule="nonzero"/></svg>